<svg id="Layer_1" data-name="Layer 1" xmlns="http://www.w3.org/2000/svg" xmlns:xlink="http://www.w3.org/1999/xlink" viewBox="0 0 240.24 37.5"><defs><style>.cls-1{fill:none;}.cls-2{fill:#fff;}.cls-3{fill:#ffbd4a;}.cls-4{clip-path:url(#clip-path);}.cls-5{fill:#bebebe;}</style><clipPath id="clip-path" transform="translate(-87.01 -167.75)"><rect class="cls-1" x="87" y="167.75" width="39.75" height="37.5"/></clipPath></defs><title>Capacintação</title><path class="cls-2" d="M139.67,187.19c0,3.47,2.1,4.89,3.84,4.89,3,0,4.81-2.25,5.57-4.51l-.56-.2c-.74,2.1-2.59,4.13-4.71,4.13-1.06,0-2.4-.29-2.4-3.3a14,14,0,0,1,1.41-6.16c1.19-2.24,2.33-2.93,3.69-2.93a2.16,2.16,0,0,1,1.83.92,6,6,0,0,1,.78,3c0,.42,0,.78,0,1.15h.42l1.16-5.55h-.42c0,.37-.29,1.32-.81,1.32-.2,0-.31-.09-.53-.3l-.32-.33a2.86,2.86,0,0,0-2-.83C143.14,178.53,139.67,183,139.67,187.19Z" transform="translate(-87.01 -167.75)"/><path class="cls-2" d="M153.14,191.75h5.29l.14-.58h-1c-.56,0-.72-.29-.72-.62a3,3,0,0,1,.62-1.41l1.23-1.81h3.78v3c0,.74-.34.83-.76.83H160.6l-.15.58h5.37l.14-.58h-1c-.49,0-.82-.14-.87-.78V178.85h-.44l-7.44,11a2.7,2.7,0,0,1-2.25,1.3h-.67Zm6-5.07,3.33-4.87v4.87Z" transform="translate(-87.01 -167.75)"/><path class="cls-2" d="M176,185.23l1.43-5.31a.58.58,0,0,1,.61-.49h2c.85,0,1.67.55,1.67,2a4.51,4.51,0,0,1-.76,2.54,3.18,3.18,0,0,1-2.48,1.3Zm-5.27,6.52h6l.15-.58h-2c-.31,0-.42-.09-.35-.49l1.33-4.87h2.2c3.3,0,5.37-2,5.37-4.09a2.74,2.74,0,0,0-3-2.87h-6.18l-.16.58h1.38c.38,0,.43.18.34.49l-2.92,10.76a.57.57,0,0,1-.61.49h-1.38Z" transform="translate(-87.01 -167.75)"/><path class="cls-2" d="M185.77,191.75h5.29l.14-.58h-1c-.56,0-.72-.29-.72-.62a3,3,0,0,1,.62-1.41l1.23-1.81h3.78v3c0,.74-.34.83-.76.83h-1.12l-.15.58h5.37l.14-.58h-1c-.49,0-.82-.14-.87-.78V178.85h-.44l-7.44,11a2.7,2.7,0,0,1-2.25,1.3h-.67Zm6-5.07,3.33-4.87v4.87Z" transform="translate(-87.01 -167.75)"/><path class="cls-3" d="M205.21,187.19c0,3.47,2.1,4.89,3.84,4.89,3,0,4.82-2.25,5.58-4.51l-.56-.2c-.75,2.1-2.59,4.13-4.71,4.13-1.07,0-2.41-.29-2.41-3.3a14,14,0,0,1,1.41-6.16c1.2-2.24,2.34-2.93,3.7-2.93a2.17,2.17,0,0,1,1.83.92,6,6,0,0,1,.77,3c0,.42,0,.78,0,1.15h.41l1.16-5.55h-.41c-.06.37-.29,1.32-.82,1.32-.2,0-.31-.09-.53-.3l-.32-.33a2.86,2.86,0,0,0-2-.83C208.69,178.53,205.21,183,205.21,187.19Z" transform="translate(-87.01 -167.75)"/><path class="cls-3" d="M219.3,191.75h5.36l.14-.58h-1.37c-.33,0-.44-.16-.35-.49L226,179.92a.58.58,0,0,1,.61-.49H228l.15-.58h-5.37l-.14.58H224c.32,0,.45.15.34.49l-2.92,10.76a.57.57,0,0,1-.61.49h-1.38Z" transform="translate(-87.01 -167.75)"/><path class="cls-3" d="M230.34,191.75h4.89l.15-.58h-.87a.8.8,0,0,1-.91-.92,3.18,3.18,0,0,1,.11-.78l2.37-8.64h.09l4,11.25h.72l3-10.94c.29-1.09,1-1.71,1.65-1.71h.87l.14-.58h-4.89l-.14.58h.87a.81.81,0,0,1,.92.93,2.8,2.8,0,0,1-.12.78l-2.27,8.27-3.78-10.56h-3.3l-.15.58h1.58c.33,0,.44.15.34.49L233,189.47c-.23.9-.83,1.7-1.64,1.7h-.87Z" transform="translate(-87.01 -167.75)"/><path class="cls-2" d="M250.54,191.75h6.2l.14-.58h-1.81c-.32,0-.4-.16-.32-.49l2.91-10.76a.6.6,0,0,1,.66-.49h.59c.71,0,1.81.38,1.81,2.39a9.52,9.52,0,0,1-.21,1.89H261l1.14-4.86h-9.92l-1.45,4.86h.45a8.92,8.92,0,0,1,1.83-3.32,3.35,3.35,0,0,1,2.08-1h.6c.29,0,.43.13.32.49l-2.91,10.76a.57.57,0,0,1-.6.49h-1.81Z" transform="translate(-87.01 -167.75)"/><path class="cls-2" d="M264.12,191.75h5.29l.15-.58h-1c-.56,0-.72-.29-.72-.62a3.11,3.11,0,0,1,.61-1.41l1.23-1.81h3.79v3c0,.74-.34.83-.76.83h-1.12l-.15.58h5.36l.15-.58h-1c-.49,0-.81-.14-.87-.78V178.85h-.43l-7.44,11a2.7,2.7,0,0,1-2.25,1.3h-.67Zm6-5.07,3.33-4.87v4.87Z" transform="translate(-87.01 -167.75)"/><path class="cls-2" d="M283.57,187.19c0,3.07,1.65,4.52,3.23,4.83a1.33,1.33,0,0,0-.13.55,1.56,1.56,0,0,0,.33.77,1.86,1.86,0,0,1,.25.93,1.4,1.4,0,0,1-1.34,1.36c-.58,0-.73-.19-.73-.46a.26.26,0,0,1,.15-.23.6.6,0,0,0,.43-.6c0-.34-.21-.53-.58-.53a.87.87,0,0,0-.77.91,1.37,1.37,0,0,0,1.43,1.34,2.22,2.22,0,0,0,2.44-1.94,1.34,1.34,0,0,0-.69-1.1c-.32-.24-.38-.38-.38-.58a.73.73,0,0,1,.09-.31l0,0h.07c3,0,4.82-2.25,5.58-4.51l-.56-.2c-.74,2.1-2.59,4.13-4.71,4.13-1.07,0-2.41-.29-2.41-3.3a14,14,0,0,1,1.41-6.16c1.2-2.24,2.34-2.93,3.7-2.93a2.17,2.17,0,0,1,1.83.92,6,6,0,0,1,.78,3c0,.42,0,.8,0,1.15h.42l1.15-5.55h-.41c-.09.38-.24,1.32-.82,1.32-.2,0-.29-.09-.52-.3l-.33-.33a2.82,2.82,0,0,0-2-.83C287.05,178.53,283.57,183,283.57,187.19Z" transform="translate(-87.01 -167.75)"/><path class="cls-2" d="M297,191.75h5.29l.15-.58h-1c-.56,0-.72-.29-.72-.62a3.11,3.11,0,0,1,.61-1.41l1.23-1.81h3.79v3c0,.74-.35.83-.76.83h-1.12l-.15.58h5.36l.15-.58h-1c-.49,0-.81-.14-.87-.78V178.85h-.43l-7.45,11a2.69,2.69,0,0,1-2.24,1.3h-.67Zm6-5.07,3.33-4.87v4.87Zm2.42-9.6h.4c.07-.44.22-.73.65-.73.91,0,1.82.73,2.94.73a1.52,1.52,0,0,0,1.45-1.7h-.4c-.07.43-.22.72-.65.72-.91,0-1.81-.72-2.94-.72A1.52,1.52,0,0,0,305.48,177.08Z" transform="translate(-87.01 -167.75)"/><path class="cls-2" d="M316.49,187.26c0,2.61,1.45,4.82,3.84,4.82,3.33,0,6.92-3.81,6.92-8.7,0-2.61-1.45-4.85-3.84-4.85C320.08,178.53,316.49,182.37,316.49,187.26Zm1.74,1a15.42,15.42,0,0,1,.8-4.92c.61-1.72,1.92-4.24,4.23-4.24,1.42,0,2.25,1.08,2.25,3.22a15.47,15.47,0,0,1-.8,4.93c-.61,1.72-1.92,4.24-4.23,4.24C319.06,191.5,318.23,190.41,318.23,188.27Z" transform="translate(-87.01 -167.75)"/><g class="cls-4"><path class="cls-3" d="M94.91,200.46H88.1A1.09,1.09,0,0,1,87,199.37V169.55a1.09,1.09,0,0,1,1.09-1.09h6.81a1.09,1.09,0,0,1,1.1,1.09v29.82A1.09,1.09,0,0,1,94.91,200.46Z" transform="translate(-87.01 -167.75)"/><path class="cls-2" d="M126.74,202.64v2a.6.6,0,0,1-.6.6H87.61a.6.6,0,0,1-.6-.6v-2a.6.6,0,0,1,.6-.6h38.53A.6.6,0,0,1,126.74,202.64Z" transform="translate(-87.01 -167.75)"/><path class="cls-5" d="M106.41,200.46H99.6a1.1,1.1,0,0,1-1.1-1.09V169.55a1.1,1.1,0,0,1,1.1-1.09h6.81a1.1,1.1,0,0,1,1.1,1.09v29.82A1.11,1.11,0,0,1,106.41,200.46Z" transform="translate(-87.01 -167.75)"/><path class="cls-2" d="M126,198.49l-6.53,1.9a1.09,1.09,0,0,1-1.36-.72l-8.46-28.6a1.07,1.07,0,0,1,.73-1.35l6.53-1.93a1.08,1.08,0,0,1,1.35.73l8.47,28.62A1.08,1.08,0,0,1,126,198.49Z" transform="translate(-87.01 -167.75)"/></g></svg>